<svg width="140" height="18" viewBox="0 0 140 18" fill="none" xmlns="http://www.w3.org/2000/svg">
<path d="M7.712 8.792C8.368 9.176 8.888 9.712 9.272 10.4C9.672 11.072 9.872 11.808 9.872 12.608C9.872 13.408 9.672 14.144 9.272 14.816C8.888 15.488 8.352 16.024 7.664 16.424C6.992 16.808 6.256 17 5.456 17H0.2V1.016L4.88 0.991999C5.68 0.991999 6.416 1.192 7.088 1.592C7.76 1.992 8.296 2.528 8.696 3.2C9.096 3.872 9.296 4.608 9.296 5.408C9.296 6.08 9.152 6.712 8.864 7.304C8.592 7.88 8.208 8.376 7.712 8.792ZM7.64 5.408C7.64 4.656 7.368 4.008 6.824 3.464C6.28 2.92 5.632 2.648 4.88 2.648H1.832V8.192H4.88C5.632 8.192 6.28 7.92 6.824 7.376C7.368 6.832 7.64 6.176 7.64 5.408ZM5.456 15.368C6.224 15.368 6.88 15.096 7.424 14.552C7.968 14.008 8.24 13.36 8.24 12.608C8.24 11.84 7.968 11.184 7.424 10.64C6.88 10.096 6.224 9.824 5.456 9.824H1.832V15.368H5.456ZM17.6519 6.776C17.2839 6.616 16.9159 6.536 16.5479 6.536C15.7959 6.536 15.1479 6.808 14.6039 7.352C14.0599 7.896 13.7879 8.544 13.7879 9.296V17H12.1559V9.296C12.1559 8.432 12.3799 7.648 12.8279 6.944C13.2919 6.224 13.8919 5.688 14.6279 5.336L14.6759 5.312C15.2679 5.04 15.8919 4.904 16.5479 4.904C17.5719 4.904 18.4839 5.216 19.2839 5.84L17.6519 6.776ZM25.2329 17.12C24.1449 17.12 23.1289 16.848 22.1849 16.304C21.2569 15.76 20.5209 15.024 19.9769 14.096C19.4329 13.152 19.1609 12.136 19.1609 11.048C19.1609 9.944 19.4329 8.928 19.9769 8C20.5209 7.056 21.2569 6.312 22.1849 5.768C23.1289 5.208 24.1449 4.928 25.2329 4.928C26.3369 4.928 27.3529 5.208 28.2809 5.768C29.2249 6.312 29.9689 7.056 30.5129 8C31.0729 8.928 31.3529 9.944 31.3529 11.048C31.3529 12.136 31.0729 13.152 30.5129 14.096C29.9689 15.024 29.2249 15.76 28.2809 16.304C27.3529 16.848 26.3369 17.12 25.2329 17.12ZM25.2329 15.512C26.0489 15.512 26.7929 15.312 27.4649 14.912C28.1529 14.512 28.6969 13.968 29.0969 13.28C29.4969 12.592 29.6969 11.848 29.6969 11.048C29.6969 10.232 29.4969 9.48 29.0969 8.792C28.6969 8.104 28.1529 7.56 27.4649 7.16C26.7929 6.76 26.0489 6.56 25.2329 6.56C24.4329 6.56 23.6889 6.76 23.0009 7.16C22.3289 7.56 21.7929 8.104 21.3929 8.792C20.9929 9.48 20.7929 10.232 20.7929 11.048C20.7929 11.848 20.9929 12.592 21.3929 13.28C21.7929 13.968 22.3289 14.512 23.0009 14.912C23.6889 15.312 24.4329 15.512 25.2329 15.512ZM50.3334 5L45.6054 17H43.8774L41.4054 10.784L38.9334 17H37.2054L32.4294 5H34.2054L38.0694 14.72L40.5174 8.576L39.1014 5H40.8774L44.7414 14.72L48.5814 5H50.3334ZM52.6278 13.784C52.7558 14.232 52.9558 14.584 53.2278 14.84C53.6758 15.256 54.3318 15.464 55.1958 15.464C55.9478 15.464 56.5558 15.288 57.0198 14.936C57.4838 14.584 57.7158 14.128 57.7158 13.568C57.7158 13.04 57.6118 12.648 57.4038 12.392C57.1958 12.136 56.9238 11.976 56.5878 11.912C56.2678 11.832 55.8198 11.784 55.2438 11.768C54.4118 11.72 53.7318 11.632 53.2038 11.504C52.6758 11.36 52.1958 11.048 51.7638 10.568C51.2358 9.912 50.9718 9.192 50.9718 8.408C50.9718 8.216 50.9798 8.072 50.9958 7.976C51.1238 6.968 51.5478 6.2 52.2678 5.672C52.9878 5.128 53.9558 4.856 55.1718 4.856H55.1958C56.0918 4.856 56.8198 5.024 57.3798 5.36C57.9398 5.696 58.3718 6.104 58.6758 6.584C58.9958 7.112 59.1958 7.664 59.2758 8.24H57.5958C57.5638 8.016 57.4598 7.752 57.2838 7.448C56.8838 6.84 56.1878 6.52 55.1958 6.488C54.1878 6.488 53.5238 6.656 53.2038 6.992C52.8838 7.328 52.6918 7.72 52.6278 8.168C52.6118 8.232 52.6038 8.32 52.6038 8.432C52.6038 8.816 52.7398 9.16 53.0118 9.464C53.2358 9.736 53.5238 9.92 53.8758 10.016C54.2278 10.096 54.7318 10.16 55.3878 10.208C55.9158 10.24 56.3638 10.288 56.7318 10.352C57.1158 10.416 57.4758 10.536 57.8118 10.712C58.8518 11.272 59.3718 12.224 59.3718 13.568C59.3718 14.032 59.2758 14.48 59.0838 14.912C58.9078 15.328 58.6518 15.696 58.3158 16.016C57.5638 16.752 56.5318 17.12 55.2198 17.12C53.9398 17.12 52.8998 16.76 52.0998 16.04C51.4758 15.432 51.0918 14.68 50.9478 13.784H52.6278Z" fill="#B14F2B"/>
<path d="M73.8884 13.784C74.0164 14.232 74.2164 14.584 74.4884 14.84C74.9364 15.256 75.5924 15.464 76.4564 15.464C77.2084 15.464 77.8164 15.288 78.2804 14.936C78.7444 14.584 78.9764 14.128 78.9764 13.568C78.9764 13.04 78.8724 12.648 78.6644 12.392C78.4564 12.136 78.1844 11.976 77.8484 11.912C77.5284 11.832 77.0804 11.784 76.5044 11.768C75.6724 11.72 74.9924 11.632 74.4644 11.504C73.9364 11.36 73.4564 11.048 73.0244 10.568C72.4964 9.912 72.2324 9.192 72.2324 8.408C72.2324 8.216 72.2404 8.072 72.2564 7.976C72.3844 6.968 72.8084 6.2 73.5284 5.672C74.2484 5.128 75.2164 4.856 76.4324 4.856H76.4564C77.3524 4.856 78.0804 5.024 78.6404 5.36C79.2004 5.696 79.6324 6.104 79.9364 6.584C80.2564 7.112 80.4564 7.664 80.5364 8.24H78.8564C78.8244 8.016 78.7204 7.752 78.5444 7.448C78.1444 6.84 77.4484 6.52 76.4564 6.488C75.4484 6.488 74.7844 6.656 74.4644 6.992C74.1444 7.328 73.9524 7.72 73.8884 8.168C73.8724 8.232 73.8644 8.32 73.8644 8.432C73.8644 8.816 74.0004 9.16 74.2724 9.464C74.4964 9.736 74.7844 9.92 75.1364 10.016C75.4884 10.096 75.9924 10.16 76.6484 10.208C77.1764 10.24 77.6244 10.288 77.9924 10.352C78.3764 10.416 78.7364 10.536 79.0724 10.712C80.1124 11.272 80.6324 12.224 80.6324 13.568C80.6324 14.032 80.5364 14.48 80.3444 14.912C80.1684 15.328 79.9124 15.696 79.5764 16.016C78.8244 16.752 77.7924 17.12 76.4804 17.12C75.2004 17.12 74.1604 16.76 73.3604 16.04C72.7364 15.432 72.3524 14.68 72.2084 13.784H73.8884ZM88.3044 6.632H86.3124V17H84.6564V6.632H82.6644V5H84.6564V1.04H86.3124V5H88.3044V6.632ZM101.748 5.312V17H100.092V14.792C98.9881 16.344 97.5161 17.12 95.6761 17.12C94.5721 17.12 93.5561 16.856 92.6281 16.328C91.7001 15.784 90.9641 15.048 90.4201 14.12C89.8921 13.192 89.6281 12.184 89.6281 11.096C89.6281 9.992 89.8921 8.976 90.4201 8.048C90.9641 7.12 91.7001 6.392 92.6281 5.864C93.5561 5.32 94.5721 5.048 95.6761 5.048C96.8121 5.048 97.7401 5.288 98.4601 5.768C99.1961 6.232 99.7401 6.736 100.092 7.28V5.312H101.748ZM95.6761 15.488C96.4761 15.488 97.2121 15.296 97.8841 14.912C98.5561 14.512 99.0841 13.976 99.4681 13.304C99.8681 12.632 100.068 11.896 100.068 11.096C100.068 10.296 99.8681 9.56 99.4681 8.888C99.0841 8.2 98.5561 7.664 97.8841 7.28C97.2121 6.88 96.4761 6.68 95.6761 6.68C94.8761 6.68 94.1321 6.88 93.4441 7.28C92.7721 7.664 92.2361 8.2 91.8361 8.888C91.4521 9.56 91.2601 10.296 91.2601 11.096C91.2601 11.896 91.4521 12.632 91.8361 13.304C92.2361 13.976 92.7721 14.512 93.4441 14.912C94.1321 15.296 94.8761 15.488 95.6761 15.488ZM109.662 6.632H107.67V17H106.014V6.632H104.022V5H106.014V1.04H107.67V5H109.662V6.632ZM113.032 1.664C113.32 1.664 113.568 1.768 113.776 1.976C113.984 2.184 114.088 2.432 114.088 2.72C114.088 3.024 113.984 3.28 113.776 3.488C113.568 3.696 113.32 3.8 113.032 3.8C112.728 3.8 112.472 3.696 112.264 3.488C112.056 3.28 111.952 3.024 111.952 2.72C111.952 2.432 112.056 2.184 112.264 1.976C112.472 1.768 112.728 1.664 113.032 1.664ZM113.848 5V17H112.192V5H113.848ZM121.724 17.12C120.636 17.12 119.62 16.848 118.676 16.304C117.748 15.76 117.012 15.024 116.468 14.096C115.924 13.152 115.652 12.136 115.652 11.048C115.652 9.944 115.924 8.928 116.468 8C117.012 7.056 117.748 6.312 118.676 5.768C119.62 5.208 120.636 4.928 121.724 4.928C122.828 4.928 123.844 5.208 124.772 5.768C125.716 6.312 126.46 7.056 127.004 8C127.564 8.928 127.844 9.944 127.844 11.048C127.844 12.136 127.564 13.152 127.004 14.096C126.46 15.024 125.716 15.76 124.772 16.304C123.844 16.848 122.828 17.12 121.724 17.12ZM121.724 15.512C122.54 15.512 123.284 15.312 123.956 14.912C124.644 14.512 125.188 13.968 125.588 13.28C125.988 12.592 126.188 11.848 126.188 11.048C126.188 10.232 125.988 9.48 125.588 8.792C125.188 8.104 124.644 7.56 123.956 7.16C123.284 6.76 122.54 6.56 121.724 6.56C120.924 6.56 120.18 6.76 119.492 7.16C118.82 7.56 118.284 8.104 117.884 8.792C117.484 9.48 117.284 10.232 117.284 11.048C117.284 11.848 117.484 12.592 117.884 13.28C118.284 13.968 118.82 14.512 119.492 14.912C120.18 15.312 120.924 15.512 121.724 15.512ZM134.874 5C135.738 5 136.53 5.216 137.25 5.648C137.986 6.064 138.57 6.64 139.002 7.376C139.434 8.096 139.65 8.888 139.65 9.752V17H137.994V9.752C137.994 9.192 137.85 8.68 137.562 8.216C137.29 7.736 136.914 7.36 136.434 7.088C135.954 6.8 135.434 6.656 134.874 6.656C134.314 6.656 133.794 6.8 133.314 7.088C132.834 7.36 132.45 7.736 132.162 8.216C131.89 8.68 131.754 9.192 131.754 9.752V17H130.122V5.312H131.754V6.368C132.154 5.92 132.618 5.584 133.146 5.36C133.69 5.12 134.266 5 134.874 5Z" fill="#B14F2B" fill-opacity="0.85"/>
</svg>
