<svg width="148" height="18" viewBox="0 0 148 18" fill="none" xmlns="http://www.w3.org/2000/svg">
<path d="M7.712 8.792C8.368 9.176 8.888 9.712 9.272 10.4C9.672 11.072 9.872 11.808 9.872 12.608C9.872 13.408 9.672 14.144 9.272 14.816C8.888 15.488 8.352 16.024 7.664 16.424C6.992 16.808 6.256 17 5.456 17H0.2V1.016L4.88 0.991999C5.68 0.991999 6.416 1.192 7.088 1.592C7.76 1.992 8.296 2.528 8.696 3.2C9.096 3.872 9.296 4.608 9.296 5.408C9.296 6.08 9.152 6.712 8.864 7.304C8.592 7.88 8.208 8.376 7.712 8.792ZM7.64 5.408C7.64 4.656 7.368 4.008 6.824 3.464C6.28 2.92 5.632 2.648 4.88 2.648H1.832V8.192H4.88C5.632 8.192 6.28 7.92 6.824 7.376C7.368 6.832 7.64 6.176 7.64 5.408ZM5.456 15.368C6.224 15.368 6.88 15.096 7.424 14.552C7.968 14.008 8.24 13.36 8.24 12.608C8.24 11.84 7.968 11.184 7.424 10.64C6.88 10.096 6.224 9.824 5.456 9.824H1.832V15.368H5.456ZM18.7319 6.776C18.3639 6.616 17.9959 6.536 17.6279 6.536C16.8759 6.536 16.2279 6.808 15.6839 7.352C15.1399 7.896 14.8679 8.544 14.8679 9.296V17H13.2359V9.296C13.2359 8.432 13.4599 7.648 13.9079 6.944C14.3719 6.224 14.9719 5.688 15.7079 5.336L15.7559 5.312C16.3479 5.04 16.9719 4.904 17.6279 4.904C18.6519 4.904 19.5639 5.216 20.3639 5.84L18.7319 6.776ZM27.3929 17.12C26.3049 17.12 25.2889 16.848 24.3449 16.304C23.4169 15.76 22.6809 15.024 22.1369 14.096C21.5929 13.152 21.3209 12.136 21.3209 11.048C21.3209 9.944 21.5929 8.928 22.1369 8C22.6809 7.056 23.4169 6.312 24.3449 5.768C25.2889 5.208 26.3049 4.928 27.3929 4.928C28.4969 4.928 29.5129 5.208 30.4409 5.768C31.3849 6.312 32.1289 7.056 32.6729 8C33.2329 8.928 33.5129 9.944 33.5129 11.048C33.5129 12.136 33.2329 13.152 32.6729 14.096C32.1289 15.024 31.3849 15.76 30.4409 16.304C29.5129 16.848 28.4969 17.12 27.3929 17.12ZM27.3929 15.512C28.2089 15.512 28.9529 15.312 29.6249 14.912C30.3129 14.512 30.8569 13.968 31.2569 13.28C31.6569 12.592 31.8569 11.848 31.8569 11.048C31.8569 10.232 31.6569 9.48 31.2569 8.792C30.8569 8.104 30.3129 7.56 29.6249 7.16C28.9529 6.76 28.2089 6.56 27.3929 6.56C26.5929 6.56 25.8489 6.76 25.1609 7.16C24.4889 7.56 23.9529 8.104 23.5529 8.792C23.1529 9.48 22.9529 10.232 22.9529 11.048C22.9529 11.848 23.1529 12.592 23.5529 13.28C23.9529 13.968 24.4889 14.512 25.1609 14.912C25.8489 15.312 26.5929 15.512 27.3929 15.512ZM53.5734 5L48.8454 17H47.1174L44.6454 10.784L42.1734 17H40.4454L35.6694 5H37.4454L41.3094 14.72L43.7574 8.576L42.3414 5H44.1174L47.9814 14.72L51.8214 5H53.5734ZM56.9478 13.784C57.0758 14.232 57.2758 14.584 57.5478 14.84C57.9958 15.256 58.6518 15.464 59.5158 15.464C60.2678 15.464 60.8758 15.288 61.3398 14.936C61.8038 14.584 62.0358 14.128 62.0358 13.568C62.0358 13.04 61.9318 12.648 61.7238 12.392C61.5158 12.136 61.2438 11.976 60.9078 11.912C60.5878 11.832 60.1398 11.784 59.5638 11.768C58.7318 11.72 58.0518 11.632 57.5238 11.504C56.9958 11.36 56.5158 11.048 56.0838 10.568C55.5558 9.912 55.2918 9.192 55.2918 8.408C55.2918 8.216 55.2998 8.072 55.3158 7.976C55.4438 6.968 55.8678 6.2 56.5878 5.672C57.3078 5.128 58.2758 4.856 59.4918 4.856H59.5158C60.4118 4.856 61.1398 5.024 61.6998 5.36C62.2598 5.696 62.6918 6.104 62.9958 6.584C63.3158 7.112 63.5158 7.664 63.5958 8.24H61.9158C61.8838 8.016 61.7798 7.752 61.6038 7.448C61.2038 6.84 60.5078 6.52 59.5158 6.488C58.5078 6.488 57.8438 6.656 57.5238 6.992C57.2038 7.328 57.0118 7.72 56.9478 8.168C56.9318 8.232 56.9238 8.32 56.9238 8.432C56.9238 8.816 57.0598 9.16 57.3318 9.464C57.5558 9.736 57.8438 9.92 58.1958 10.016C58.5478 10.096 59.0518 10.16 59.7078 10.208C60.2358 10.24 60.6838 10.288 61.0518 10.352C61.4358 10.416 61.7958 10.536 62.1318 10.712C63.1718 11.272 63.6918 12.224 63.6918 13.568C63.6918 14.032 63.5958 14.48 63.4038 14.912C63.2278 15.328 62.9718 15.696 62.6358 16.016C61.8838 16.752 60.8518 17.12 59.5398 17.12C58.2598 17.12 57.2198 16.76 56.4198 16.04C55.7958 15.432 55.4118 14.68 55.2678 13.784H56.9478Z" fill="#B14F2B"/>
<path d="M79.2884 13.784C79.4164 14.232 79.6164 14.584 79.8884 14.84C80.3364 15.256 80.9924 15.464 81.8564 15.464C82.6084 15.464 83.2164 15.288 83.6804 14.936C84.1444 14.584 84.3764 14.128 84.3764 13.568C84.3764 13.04 84.2724 12.648 84.0644 12.392C83.8564 12.136 83.5844 11.976 83.2484 11.912C82.9284 11.832 82.4804 11.784 81.9044 11.768C81.0724 11.72 80.3924 11.632 79.8644 11.504C79.3364 11.36 78.8564 11.048 78.4244 10.568C77.8964 9.912 77.6324 9.192 77.6324 8.408C77.6324 8.216 77.6404 8.072 77.6564 7.976C77.7844 6.968 78.2084 6.2 78.9284 5.672C79.6484 5.128 80.6164 4.856 81.8324 4.856H81.8564C82.7524 4.856 83.4804 5.024 84.0404 5.36C84.6004 5.696 85.0324 6.104 85.3364 6.584C85.6564 7.112 85.8564 7.664 85.9364 8.24H84.2564C84.2244 8.016 84.1204 7.752 83.9444 7.448C83.5444 6.84 82.8484 6.52 81.8564 6.488C80.8484 6.488 80.1844 6.656 79.8644 6.992C79.5444 7.328 79.3524 7.72 79.2884 8.168C79.2724 8.232 79.2644 8.32 79.2644 8.432C79.2644 8.816 79.4004 9.16 79.6724 9.464C79.8964 9.736 80.1844 9.92 80.5364 10.016C80.8884 10.096 81.3924 10.16 82.0484 10.208C82.5764 10.24 83.0244 10.288 83.3924 10.352C83.7764 10.416 84.1364 10.536 84.4724 10.712C85.5124 11.272 86.0324 12.224 86.0324 13.568C86.0324 14.032 85.9364 14.48 85.7444 14.912C85.5684 15.328 85.3124 15.696 84.9764 16.016C84.2244 16.752 83.1924 17.12 81.8804 17.12C80.6004 17.12 79.5604 16.76 78.7604 16.04C78.1364 15.432 77.7524 14.68 77.6084 13.784H79.2884ZM94.1844 6.632H92.1924V17H90.5364V6.632H88.5444V5H90.5364V1.04H92.1924V5H94.1844V6.632ZM108.108 5.312V17H106.452V14.792C105.348 16.344 103.876 17.12 102.036 17.12C100.932 17.12 99.9161 16.856 98.9881 16.328C98.0601 15.784 97.3241 15.048 96.7801 14.12C96.2521 13.192 95.9881 12.184 95.9881 11.096C95.9881 9.992 96.2521 8.976 96.7801 8.048C97.3241 7.12 98.0601 6.392 98.9881 5.864C99.9161 5.32 100.932 5.048 102.036 5.048C103.172 5.048 104.1 5.288 104.82 5.768C105.556 6.232 106.1 6.736 106.452 7.28V5.312H108.108ZM102.036 15.488C102.836 15.488 103.572 15.296 104.244 14.912C104.916 14.512 105.444 13.976 105.828 13.304C106.228 12.632 106.428 11.896 106.428 11.096C106.428 10.296 106.228 9.56 105.828 8.888C105.444 8.2 104.916 7.664 104.244 7.28C103.572 6.88 102.836 6.68 102.036 6.68C101.236 6.68 100.492 6.88 99.8041 7.28C99.1321 7.664 98.5961 8.2 98.1961 8.888C97.8121 9.56 97.6201 10.296 97.6201 11.096C97.6201 11.896 97.8121 12.632 98.1961 13.304C98.5961 13.976 99.1321 14.512 99.8041 14.912C100.492 15.296 101.236 15.488 102.036 15.488ZM116.502 6.632H114.51V17H112.854V6.632H110.862V5H112.854V1.04H114.51V5H116.502V6.632ZM120.352 1.664C120.64 1.664 120.888 1.768 121.096 1.976C121.304 2.184 121.408 2.432 121.408 2.72C121.408 3.024 121.304 3.28 121.096 3.488C120.888 3.696 120.64 3.8 120.352 3.8C120.048 3.8 119.792 3.696 119.584 3.488C119.376 3.28 119.272 3.024 119.272 2.72C119.272 2.432 119.376 2.184 119.584 1.976C119.792 1.768 120.048 1.664 120.352 1.664ZM121.168 5V17H119.512V5H121.168ZM129.524 17.12C128.436 17.12 127.42 16.848 126.476 16.304C125.548 15.76 124.812 15.024 124.268 14.096C123.724 13.152 123.452 12.136 123.452 11.048C123.452 9.944 123.724 8.928 124.268 8C124.812 7.056 125.548 6.312 126.476 5.768C127.42 5.208 128.436 4.928 129.524 4.928C130.628 4.928 131.644 5.208 132.572 5.768C133.516 6.312 134.26 7.056 134.804 8C135.364 8.928 135.644 9.944 135.644 11.048C135.644 12.136 135.364 13.152 134.804 14.096C134.26 15.024 133.516 15.76 132.572 16.304C131.644 16.848 130.628 17.12 129.524 17.12ZM129.524 15.512C130.34 15.512 131.084 15.312 131.756 14.912C132.444 14.512 132.988 13.968 133.388 13.28C133.788 12.592 133.988 11.848 133.988 11.048C133.988 10.232 133.788 9.48 133.388 8.792C132.988 8.104 132.444 7.56 131.756 7.16C131.084 6.76 130.34 6.56 129.524 6.56C128.724 6.56 127.98 6.76 127.292 7.16C126.62 7.56 126.084 8.104 125.684 8.792C125.284 9.48 125.084 10.232 125.084 11.048C125.084 11.848 125.284 12.592 125.684 13.28C126.084 13.968 126.62 14.512 127.292 14.912C127.98 15.312 128.724 15.512 129.524 15.512ZM143.154 5C144.018 5 144.81 5.216 145.53 5.648C146.266 6.064 146.85 6.64 147.282 7.376C147.714 8.096 147.93 8.888 147.93 9.752V17H146.274V9.752C146.274 9.192 146.13 8.68 145.842 8.216C145.57 7.736 145.194 7.36 144.714 7.088C144.234 6.8 143.714 6.656 143.154 6.656C142.594 6.656 142.074 6.8 141.594 7.088C141.114 7.36 140.73 7.736 140.442 8.216C140.17 8.68 140.034 9.192 140.034 9.752V17H138.402V5.312H140.034V6.368C140.434 5.92 140.898 5.584 141.426 5.36C141.97 5.12 142.546 5 143.154 5Z" fill="#B14F2B" fill-opacity="0.85"/>
</svg>
