<svg width="16" height="17" viewBox="0 0 16 17" fill="red" xmlns="http://www.w3.org/2000/svg">
<path fill-rule="evenodd" clip-rule="evenodd" d="M7.33325 3.16668C4.75592 3.16668 2.66659 5.25601 2.66659 7.83334C2.66659 10.4107 4.75592 12.5 7.33325 12.5C9.91058 12.5 11.9999 10.4107 11.9999 7.83334C11.9999 5.25601 9.91058 3.16668 7.33325 3.16668ZM1.33325 7.83334C1.33325 4.51963 4.01954 1.83334 7.33325 1.83334C10.647 1.83334 13.3333 4.51963 13.3333 7.83334C13.3333 11.1471 10.647 13.8333 7.33325 13.8333C4.01954 13.8333 1.33325 11.1471 1.33325 7.83334Z" fill="rgba(177, 79, 43, 0.85)"/>
<path fill-rule="evenodd" clip-rule="evenodd" d="M10.6286 11.1286C10.889 10.8682 11.3111 10.8682 11.5714 11.1286L14.4714 14.0286C14.7318 14.2889 14.7318 14.711 14.4714 14.9714C14.2111 15.2317 13.789 15.2317 13.5286 14.9714L10.6286 12.0714C10.3683 11.811 10.3683 11.3889 10.6286 11.1286Z" fill="rgba(177, 79, 43, 0.85)"/>
</svg>
